<svg xmlns="http://www.w3.org/2000/svg" xmlns:xlink="http://www.w3.org/1999/xlink" width="500" zoomAndPan="magnify" viewBox="0 0 375 374.999991" height="500" preserveAspectRatio="xMidYMid meet" version="1.0"><defs><clipPath id="id1"><path d="M 28.417969 77.996094 L 346.34375 77.996094 L 346.34375 277.496094 L 28.417969 277.496094 Z M 28.417969 77.996094 " clip-rule="nonzero"/></clipPath></defs><g clip-path="url(#id1)"><path fill="#80cc28" d="M 220.660156 248.625 C 270.710938 221.625 334.242188 237.605469 334.242188 237.605469 C 265.210938 229.0625 220.660156 248.625 220.660156 248.625 Z M 303.714844 138.421875 C 303.714844 138.421875 271.535156 186.085938 220.660156 207.023438 C 220.660156 207.023438 265.488281 182.503906 303.714844 138.421875 Z M 187.378906 181.953125 C 179.484375 181.953125 173.078125 171.132812 173.078125 163.21875 C 173.078125 155.679688 178.894531 149.515625 186.273438 148.949219 C 185.035156 126.363281 187.378906 106.28125 187.378906 106.28125 C 187.378906 106.28125 189.722656 126.363281 188.484375 148.949219 C 195.867188 149.515625 201.679688 155.679688 201.679688 163.21875 C 201.679688 171.132812 195.28125 181.953125 187.378906 181.953125 Z M 154.101562 207.023438 C 103.222656 186.085938 71.046875 138.421875 71.046875 138.421875 C 109.273438 182.503906 154.101562 207.023438 154.101562 207.023438 Z M 40.519531 237.605469 C 40.519531 237.605469 104.050781 221.625 154.101562 248.625 C 154.101562 248.625 109.550781 229.0625 40.519531 237.605469 Z M 278.972656 210.910156 C 268.878906 210.921875 248.324219 213.804688 224.507812 233.199219 C 224.507812 233.199219 242.933594 208.988281 276.972656 206.25 C 311.972656 176.253906 314.441406 127.402344 314.441406 127.402344 C 251.734375 125.75 226.984375 156.605469 226.984375 156.605469 C 226.984375 156.605469 219.632812 164.867188 217.175781 173.6875 C 217.175781 173.6875 219.183594 161.242188 227.023438 151.1875 C 225.65625 111.300781 187.378906 77.996094 187.378906 77.996094 C 187.378906 77.996094 149.101562 111.300781 147.738281 151.1875 C 155.574219 161.242188 157.585938 173.6875 157.585938 173.6875 C 155.128906 164.867188 147.777344 156.605469 147.777344 156.605469 C 147.777344 156.605469 123.027344 125.75 60.320312 127.402344 C 60.320312 127.402344 62.789062 176.253906 97.789062 206.25 C 131.828125 208.988281 150.25 233.199219 150.25 233.199219 C 127.410156 214.59375 107.566406 211.183594 97.078125 210.929688 C 84.734375 211.140625 57.550781 214.320312 28.417969 235.402344 C 28.417969 235.402344 52.070312 270.113281 108.722656 276.726562 C 149.527344 281.488281 168.929688 263.960938 173.105469 243.894531 C 176.117188 229.402344 170.863281 209.066406 162.078125 197.933594 C 142.878906 173.585938 119.460938 160.242188 98.300781 154.375 C 98.300781 154.375 100.835938 152.949219 106.660156 154.125 C 146.128906 162.117188 177.894531 193.386719 187.378906 193.386719 C 196.867188 193.386719 228.632812 162.117188 268.097656 154.125 C 273.921875 152.949219 276.460938 154.375 276.460938 154.375 C 255.296875 160.242188 231.882812 173.585938 212.679688 197.933594 C 203.898438 209.066406 198.640625 229.402344 201.65625 243.894531 C 205.828125 263.960938 225.234375 281.488281 266.035156 276.726562 C 322.691406 270.113281 346.34375 235.402344 346.34375 235.402344 C 310.265625 216.269531 289.332031 211.722656 278.972656 210.910156 " fill-opacity="1" fill-rule="nonzero"/></g></svg>