<svg xmlns="http://www.w3.org/2000/svg" xmlns:xlink="http://www.w3.org/1999/xlink" width="6912" zoomAndPan="magnify" viewBox="0 0 5184 2592.000001" height="3456" preserveAspectRatio="xMidYMid meet" version="1.0"><defs><clipPath id="id1"><path d="M 1 0 L 5183 0 L 5183 2591 L 1 2591 Z M 1 0 " clip-rule="nonzero"/></clipPath><clipPath id="id2"><path d="M 2456 1891.820312 L 2916.878906 1891.820312 L 2916.878906 2331.261719 L 2456 2331.261719 Z M 2456 1891.820312 " clip-rule="nonzero"/></clipPath><clipPath id="id3"><path d="M 2837 1819 L 2970.449219 1819 L 2970.449219 1952.382812 L 2837 1952.382812 Z M 2837 1819 " clip-rule="nonzero"/></clipPath></defs><g clip-path="url(#id1)"><path fill="#ffffff" d="M 1 0 L 5183 0 L 5183 2598.496094 L 1 2598.496094 Z M 1 0 " fill-opacity="1" fill-rule="nonzero"/></g><path fill="#ffffff" d="M 1 0 L 5183 0 L 5183 2591 L 1 2591 Z M 1 0 " fill-opacity="1" fill-rule="nonzero"/><path fill="#dff6ff" d="M 1 0 L 5183 0 L 5183 2591 L 1 2591 Z M 1 0 " fill-opacity="1" fill-rule="nonzero"/><path fill="#cccccc" d="M 2696.101562 1380.773438 C 2677.160156 1351.726562 2648.601562 1331.335938 2616.0625 1322.546875 C 2618.113281 1325.113281 2619.375 1327.625 2619.375 1329.796875 C 2619.375 1334.300781 2614.300781 1340.171875 2606.855469 1345.167969 C 2634.914062 1351.964844 2659.636719 1369.152344 2675.832031 1393.996094 C 2697.101562 1426.617188 2700.433594 1467.363281 2684.730469 1503.003906 L 2611.734375 1668.710938 C 2615.847656 1667.347656 2620.421875 1667.382812 2624.679688 1669.277344 C 2628.964844 1671.167969 2632.09375 1674.527344 2633.878906 1678.476562 L 2706.875 1512.769531 C 2725.878906 1469.609375 2721.859375 1420.265625 2696.101562 1380.773438 " fill-opacity="1" fill-rule="nonzero"/><path fill="#cccccc" d="M 2313.367188 1666.675781 C 2317.625 1664.78125 2322.199219 1664.746094 2326.3125 1666.101562 L 2254.464844 1503.003906 C 2238.769531 1467.363281 2242.097656 1426.617188 2263.371094 1393.996094 C 2279.511719 1369.226562 2304.128906 1352.0625 2332.082031 1345.222656 C 2324.59375 1340.21875 2319.480469 1334.328125 2319.480469 1329.796875 C 2319.480469 1327.652344 2320.707031 1325.195312 2322.691406 1322.671875 C 2290.347656 1331.527344 2261.953125 1351.855469 2243.089844 1380.773438 C 2217.34375 1420.265625 2213.3125 1469.609375 2232.316406 1512.769531 L 2304.167969 1675.863281 C 2305.949219 1671.925781 2309.082031 1668.566406 2313.367188 1666.675781 " fill-opacity="1" fill-rule="nonzero"/><path fill="#999999" d="M 2342.363281 1351.765625 C 2349.085938 1353.929688 2355.808594 1356.09375 2362.523438 1358.25 C 2376.398438 1363.558594 2387.742188 1350.746094 2387.742188 1329.796875 C 2387.742188 1308.84375 2376.398438 1296.039062 2362.523438 1301.335938 C 2355.808594 1303.5 2349.085938 1305.65625 2342.363281 1307.824219 C 2328.496094 1313.121094 2317.148438 1323.011719 2317.148438 1329.796875 C 2317.148438 1336.578125 2328.496094 1346.46875 2342.363281 1351.765625 " fill-opacity="1" fill-rule="nonzero"/><path fill="#999999" d="M 2596.492188 1351.765625 C 2589.769531 1353.929688 2583.046875 1356.09375 2576.324219 1358.25 C 2562.457031 1363.558594 2551.113281 1350.746094 2551.113281 1329.796875 C 2551.113281 1308.84375 2562.457031 1296.039062 2576.324219 1301.335938 C 2583.046875 1303.5 2589.769531 1305.65625 2596.492188 1307.824219 C 2610.359375 1313.121094 2621.707031 1323.011719 2621.707031 1329.796875 C 2621.707031 1336.578125 2610.359375 1346.46875 2596.492188 1351.765625 " fill-opacity="1" fill-rule="nonzero"/><g clip-path="url(#id2)"><path fill="#999999" d="M 2903.953125 1949.808594 C 2899.8125 1949.808594 2895.773438 1949.382812 2891.839844 1948.652344 L 2891.839844 2101.675781 C 2891.839844 2214.917969 2799.722656 2307.058594 2686.484375 2307.058594 C 2573.246094 2307.058594 2481.117188 2214.917969 2481.117188 2101.675781 L 2481.117188 1893.257812 C 2477.179688 1897.6875 2472.75 1900.753906 2469.609375 1900.792969 C 2466.144531 1900.753906 2461.113281 1897.070312 2456.917969 1891.902344 L 2456.917969 2101.675781 C 2456.917969 2228.265625 2559.902344 2331.261719 2686.484375 2331.261719 C 2813.070312 2331.261719 2916.050781 2228.265625 2916.050781 2101.675781 L 2916.050781 1948.652344 C 2912.121094 1949.382812 2908.089844 1949.808594 2903.953125 1949.808594 " fill-opacity="1" fill-rule="nonzero"/></g><path fill="#999999" d="M 2636.328125 1690.914062 L 2602.324219 1768.011719 C 2583.082031 1811.816406 2545.445312 1841.964844 2500.371094 1851.464844 C 2498.371094 1864.113281 2491.957031 1875.421875 2486.324219 1888.378906 C 2481.847656 1896.359375 2474.285156 1903.085938 2469.628906 1903.140625 C 2464.90625 1903.085938 2457.410156 1896.359375 2452.921875 1888.316406 C 2447.238281 1875.421875 2440.824219 1864.113281 2438.894531 1851.464844 C 2393.8125 1842.019531 2356.171875 1811.816406 2336.875 1768.011719 L 2301.71875 1688.25 C 2297.660156 1679.113281 2301.839844 1668.402344 2311.035156 1664.34375 C 2320.171875 1660.285156 2330.878906 1664.464844 2334.9375 1673.609375 L 2370.09375 1753.363281 C 2387.699219 1793.429688 2425.820312 1818.296875 2469.628906 1818.296875 C 2513.371094 1818.296875 2551.492188 1793.429688 2569.097656 1753.363281 L 2603.109375 1676.265625 C 2607.167969 1667.066406 2617.875 1662.898438 2627.007812 1666.945312 C 2636.207031 1671.003906 2640.382812 1681.714844 2636.328125 1690.914062 " fill-opacity="1" fill-rule="nonzero"/><g clip-path="url(#id3)"><path fill="#cccccc" d="M 2970.503906 1885.566406 C 2970.503906 1922.339844 2940.707031 1952.140625 2903.953125 1952.140625 C 2867.183594 1952.140625 2837.386719 1922.339844 2837.386719 1885.566406 C 2837.386719 1848.804688 2867.183594 1819.007812 2903.953125 1819.007812 C 2940.707031 1819.007812 2970.503906 1848.804688 2970.503906 1885.566406 " fill-opacity="1" fill-rule="nonzero"/></g><path fill="#999999" d="M 2952.355469 1885.566406 C 2952.355469 1912.3125 2930.683594 1933.984375 2903.953125 1933.984375 C 2877.210938 1933.984375 2855.539062 1912.3125 2855.539062 1885.566406 C 2855.539062 1858.835938 2877.210938 1837.160156 2903.953125 1837.160156 C 2930.683594 1837.160156 2952.355469 1858.835938 2952.355469 1885.566406 " fill-opacity="1" fill-rule="nonzero"/><path fill="#cccccc" d="M 2940.253906 1885.566406 C 2940.253906 1905.621094 2923.996094 1921.882812 2903.953125 1921.882812 C 2883.898438 1921.882812 2867.640625 1905.621094 2867.640625 1885.566406 C 2867.640625 1865.523438 2883.898438 1849.261719 2903.953125 1849.261719 C 2923.996094 1849.261719 2940.253906 1865.523438 2940.253906 1885.566406 " fill-opacity="1" fill-rule="nonzero"/></svg>