<svg xmlns="http://www.w3.org/2000/svg" xmlns:xlink="http://www.w3.org/1999/xlink" width="6912" zoomAndPan="magnify" viewBox="0 0 5184 2592.000001" height="3456" preserveAspectRatio="xMidYMid meet" version="1.0"><defs><clipPath id="id1"><path d="M 1 0 L 5183 0 L 5183 2591 L 1 2591 Z M 1 0 " clip-rule="nonzero"/></clipPath><clipPath id="id2"><path d="M 602.480469 1295.5 L 1638.582031 1295.5 L 1638.582031 2331.601562 L 602.480469 2331.601562 Z M 602.480469 1295.5 " clip-rule="nonzero"/></clipPath></defs><g clip-path="url(#id1)"><path fill="#ffffff" d="M 1 0 L 5183 0 L 5183 2598.496094 L 1 2598.496094 Z M 1 0 " fill-opacity="1" fill-rule="nonzero"/></g><path fill="#ffffff" d="M 1 0 L 5183 0 L 5183 2591 L 1 2591 Z M 1 0 " fill-opacity="1" fill-rule="nonzero"/><path fill="#dff6ff" d="M 1 0 L 5183 0 L 5183 2591 L 1 2591 Z M 1 0 " fill-opacity="1" fill-rule="nonzero"/><g clip-path="url(#id2)"><path fill="#ffffff" d="M 1120.53125 2331.601562 C 834.523438 2331.601562 602.480469 2099.558594 602.480469 1813.550781 C 602.480469 1527.542969 834.523438 1295.5 1120.53125 1295.5 C 1406.539062 1295.5 1638.582031 1527.542969 1638.582031 1813.550781 C 1638.582031 2099.558594 1406.539062 2331.601562 1120.53125 2331.601562 Z M 1191.664062 1578.074219 L 1049.398438 1578.074219 C 1036.644531 1578.074219 1026.339844 1588.128906 1026.339844 1601.375 L 1026.339844 1719.359375 L 908.355469 1719.359375 C 895.601562 1719.359375 885.054688 1729.417969 885.054688 1742.417969 L 885.054688 1884.683594 C 885.054688 1897.4375 895.113281 1907.742188 908.355469 1907.742188 L 1026.339844 1907.742188 L 1026.339844 2025.726562 C 1026.339844 2038.480469 1036.398438 2049.027344 1049.398438 2049.027344 L 1191.664062 2049.027344 C 1204.421875 2049.027344 1214.722656 2038.972656 1214.722656 2025.726562 L 1214.722656 1907.742188 L 1332.707031 1907.742188 C 1345.460938 1907.742188 1356.007812 1897.683594 1356.007812 1884.683594 L 1356.007812 1742.417969 C 1356.007812 1729.660156 1345.953125 1719.359375 1332.707031 1719.359375 L 1214.722656 1719.359375 L 1214.722656 1601.375 C 1214.722656 1588.621094 1204.667969 1578.074219 1191.664062 1578.074219 Z M 1191.664062 1578.074219 " fill-opacity="1" fill-rule="evenodd"/></g></svg>