<svg xmlns="http://www.w3.org/2000/svg" xmlns:xlink="http://www.w3.org/1999/xlink" width="6912" zoomAndPan="magnify" viewBox="0 0 5184 2592.000001" height="3456" preserveAspectRatio="xMidYMid meet" version="1.0"><defs><clipPath id="id1"><path d="M 1 0 L 5183 0 L 5183 2591 L 1 2591 Z M 1 0 " clip-rule="nonzero"/></clipPath></defs><g clip-path="url(#id1)"><path fill="#ffffff" d="M 1 0 L 5183 0 L 5183 2598.496094 L 1 2598.496094 Z M 1 0 " fill-opacity="1" fill-rule="nonzero"/></g><path fill="#ffffff" d="M 1 0 L 5183 0 L 5183 2591 L 1 2591 Z M 1 0 " fill-opacity="1" fill-rule="nonzero"/><path fill="#dff6ff" d="M 1 0 L 5183 0 L 5183 2591 L 1 2591 Z M 1 0 " fill-opacity="1" fill-rule="nonzero"/><path fill="#d76b73" d="M 3909.15625 2017.105469 L 3841.375 1781.167969 C 3841.375 1781.167969 3777.78125 1799.5 3756.652344 1805.28125 C 3707.410156 1818.832031 3630.859375 1866.65625 3656.574219 1955.53125 C 3687.078125 2061.34375 3776.984375 2054.769531 3824.632812 2041.21875 C 3854.335938 2033.046875 3909.15625 2017.105469 3909.15625 2017.105469 Z M 3909.15625 2017.105469 " fill-opacity="1" fill-rule="nonzero"/><path fill="#303030" d="M 4245.269531 2110.566406 L 4488.484375 2076.289062 C 4488.484375 2076.289062 4479.3125 2010.929688 4476.324219 1989.007812 C 4469.742188 1938.394531 4433.0625 1855.894531 4341.359375 1868.847656 C 4232.3125 1884.191406 4226.332031 1974.261719 4232.910156 2023.285156 C 4237.097656 2054.371094 4245.269531 2110.566406 4245.269531 2110.566406 Z M 4245.269531 2110.566406 " fill-opacity="1" fill-rule="nonzero"/><path fill="#74aedb" d="M 4380.433594 1590.863281 L 4155.558594 1492.222656 C 4155.558594 1492.222656 4129.046875 1552.804688 4119.875 1572.730469 C 4098.742188 1619.160156 4086.582031 1708.632812 4171.507812 1745.898438 C 4272.382812 1790.136719 4324.8125 1716.804688 4344.949219 1671.570312 C 4357.707031 1643.074219 4380.433594 1590.863281 4380.433594 1590.863281 Z M 4380.433594 1590.863281 " fill-opacity="1" fill-rule="nonzero"/><path fill="#e8e8e8" d="M 3909.15625 2017.105469 L 3841.375 1781.167969 C 3841.375 1781.167969 3904.972656 1763.234375 3926.101562 1757.058594 C 3974.945312 1742.710938 4065.453125 1742.910156 4090.96875 1831.785156 C 4121.46875 1937.597656 4041.527344 1979.445312 3994.082031 1993.195312 C 3963.78125 2001.761719 3909.15625 2017.105469 3909.15625 2017.105469 Z M 3909.15625 2017.105469 " fill-opacity="1" fill-rule="nonzero"/><path fill="#e8e8e8" d="M 4245.269531 2110.566406 L 4488.484375 2076.289062 C 4488.484375 2076.289062 4497.253906 2141.652344 4500.644531 2163.371094 C 4508.019531 2213.789062 4495.261719 2303.261719 4403.558594 2316.214844 C 4294.511719 2331.558594 4264.207031 2246.667969 4257.230469 2197.847656 C 4252.84375 2166.960938 4245.269531 2110.566406 4245.269531 2110.566406 Z M 4245.269531 2110.566406 " fill-opacity="1" fill-rule="nonzero"/><path fill="#e8e8e8" d="M 4380.433594 1590.863281 L 4155.558594 1492.222656 C 4155.558594 1492.222656 4182.472656 1432.042969 4191.046875 1411.71875 C 4211.179688 1364.890625 4269.191406 1295.542969 4353.917969 1332.808594 C 4454.792969 1377.046875 4435.851562 1465.125 4415.917969 1510.359375 C 4403.757812 1539.054688 4380.433594 1590.863281 4380.433594 1590.863281 Z M 4380.433594 1590.863281 " fill-opacity="1" fill-rule="nonzero"/><path fill="#ffffff" d="M 3792.535156 2000.765625 C 3791.539062 1997.378906 3788.347656 1995.386719 3785.160156 1995.785156 C 3773.996094 1997.578125 3762.433594 1995.386719 3752.066406 1989.40625 C 3741.699219 1983.429688 3733.925781 1974.261719 3729.539062 1963.304688 C 3728.144531 1960.113281 3724.753906 1958.320312 3721.566406 1959.117188 C 3717.777344 1960.113281 3715.785156 1964.300781 3717.378906 1968.085938 C 3722.960938 1982.035156 3732.929688 1993.59375 3745.886719 2001.164062 C 3758.84375 2008.738281 3773.398438 2011.527344 3787.550781 2009.136719 C 3791.339844 2008.539062 3793.53125 2004.550781 3792.535156 2000.765625 Z M 3792.535156 2000.765625 " fill-opacity="1" fill-rule="nonzero"/><path fill="#ffffff" d="M 4277.765625 1997.578125 C 4281.152344 1997.179688 4283.746094 1994.191406 4283.746094 1990.804688 C 4283.546875 1979.445312 4287.332031 1968.285156 4294.710938 1959.117188 C 4302.085938 1949.753906 4312.253906 1943.375 4323.816406 1940.386719 C 4327.203125 1939.589844 4329.398438 1936.402344 4329 1933.214844 C 4328.402344 1929.425781 4324.613281 1926.835938 4320.625 1927.832031 C 4306.074219 1931.417969 4293.113281 1939.789062 4283.945312 1951.347656 C 4274.574219 1963.105469 4269.988281 1977.054688 4270.1875 1991.402344 C 4270.1875 1995.1875 4273.777344 1998.175781 4277.765625 1997.578125 Z M 4277.765625 1997.578125 " fill-opacity="1" fill-rule="nonzero"/><path fill="#ffffff" d="M 4293.316406 1669.976562 C 4290.125 1668.578125 4286.535156 1669.777344 4284.742188 1672.566406 C 4278.960938 1682.328125 4269.789062 1689.902344 4258.824219 1693.886719 C 4247.664062 1697.871094 4235.5 1698.074219 4224.136719 1694.484375 C 4220.75 1693.488281 4217.359375 1694.882812 4215.964844 1697.871094 C 4214.371094 1701.460938 4216.363281 1705.644531 4220.152344 1706.839844 C 4234.503906 1711.421875 4249.855469 1711.222656 4263.808594 1706.042969 C 4277.964844 1700.863281 4289.328125 1691.496094 4296.703125 1679.140625 C 4298.695312 1675.953125 4297.101562 1671.570312 4293.316406 1669.976562 Z M 4293.316406 1669.976562 " fill-opacity="1" fill-rule="nonzero"/></svg>